<?xml version="1.0" encoding="UTF-8"?>
<svg width="700pt" height="700pt" version="1.1" viewBox="0 0 700 700" xmlns="http://www.w3.org/2000/svg" xmlns:xlink="http://www.w3.org/1999/xlink"
 fill="white"
 >
 <!-- <defs>
  <symbol id="v" overflow="visible">
   <path d="m4.6562-0.28125c-0.24219 0.125-0.49219 0.21875-0.75 0.28125-0.26172 0.0625-0.53125 0.09375-0.8125 0.09375-0.84375 0-1.5156-0.23438-2.0156-0.70312-0.49219-0.46875-0.73438-1.1094-0.73438-1.9219s0.24219-1.4531 0.73438-1.9219c0.5-0.46875 1.1719-0.70312 2.0156-0.70312 0.28125 0 0.55078 0.03125 0.8125 0.09375 0.25781 0.0625 0.50781 0.15625 0.75 0.28125v1.0469c-0.24219-0.16406-0.48047-0.28516-0.71875-0.35938-0.23047-0.082031-0.47656-0.125-0.73438-0.125-0.46875 0-0.83984 0.15234-1.1094 0.45312-0.26172 0.30469-0.39062 0.71484-0.39062 1.2344 0 0.52344 0.12891 0.93359 0.39062 1.2344 0.26953 0.30469 0.64062 0.45312 1.1094 0.45312 0.25781 0 0.50391-0.035156 0.73438-0.10938 0.23828-0.082031 0.47656-0.20703 0.71875-0.375z"/>
  </symbol>
  <symbol id="d" overflow="visible">
   <path d="m3.4062-2.7656c-0.10547-0.050781-0.21094-0.085937-0.3125-0.10938-0.10547-0.019531-0.21094-0.03125-0.3125-0.03125-0.3125 0-0.55859 0.10156-0.73438 0.29688-0.16797 0.19922-0.25 0.48438-0.25 0.85938v1.75h-1.2188v-3.7969h1.2188v0.625c0.15625-0.25 0.33203-0.42969 0.53125-0.54688 0.20703-0.11328 0.45312-0.17188 0.73438-0.17188h0.125c0.050781 0 0.125 0.011719 0.21875 0.03125z"/>
  </symbol>
  <symbol id="b" overflow="visible">
   <path d="m4.375-1.9062v0.34375h-2.8438c0.03125 0.28125 0.13281 0.49609 0.3125 0.64062 0.17578 0.14844 0.42578 0.21875 0.75 0.21875 0.25 0 0.50781-0.035156 0.78125-0.10938 0.26953-0.082031 0.54688-0.20312 0.82812-0.35938v0.9375c-0.29297 0.11719-0.58594 0.19922-0.875 0.25-0.28125 0.050781-0.57031 0.078125-0.85938 0.078125-0.6875 0-1.2266-0.17188-1.6094-0.51562-0.375-0.35156-0.5625-0.84375-0.5625-1.4688s0.1875-1.1133 0.5625-1.4688c0.375-0.35156 0.89062-0.53125 1.5469-0.53125 0.59375 0 1.0664 0.18359 1.4219 0.54688 0.36328 0.35547 0.54688 0.83594 0.54688 1.4375zm-1.25-0.40625c0-0.22656-0.070312-0.41406-0.20312-0.5625-0.13672-0.14453-0.30859-0.21875-0.51562-0.21875-0.24219 0-0.43359 0.070312-0.57812 0.20312-0.14844 0.13672-0.24219 0.32812-0.28125 0.57812z"/>
  </symbol>
  <symbol id="l" overflow="visible">
   <path d="m2.2812-1.7188c-0.25 0-0.4375 0.046875-0.5625 0.14062-0.125 0.085937-0.1875 0.21094-0.1875 0.375 0 0.15625 0.046875 0.28125 0.14062 0.375 0.10156 0.085937 0.25 0.125 0.4375 0.125 0.22656 0 0.42188-0.082031 0.57812-0.25 0.15625-0.16406 0.23438-0.375 0.23438-0.625v-0.14062zm1.8594-0.45312v2.1719h-1.2188v-0.5625c-0.16797 0.23047-0.35547 0.39844-0.5625 0.5-0.19922 0.10156-0.44531 0.15625-0.73438 0.15625-0.39844 0-0.71875-0.11328-0.96875-0.34375-0.24219-0.22656-0.35938-0.52344-0.35938-0.89062 0-0.44531 0.14844-0.77344 0.45312-0.98438 0.3125-0.20703 0.79688-0.3125 1.4531-0.3125h0.71875v-0.09375c0-0.1875-0.078125-0.32812-0.23438-0.42188-0.14844-0.09375-0.38281-0.14062-0.70312-0.14062-0.26172 0-0.50781 0.027344-0.73438 0.078125-0.21875 0.054687-0.42969 0.13281-0.625 0.23438v-0.92188c0.25781-0.0625 0.51953-0.10938 0.78125-0.14062 0.26953-0.03125 0.53516-0.046875 0.79688-0.046875 0.6875 0 1.1797 0.13672 1.4844 0.40625 0.30078 0.27344 0.45312 0.71094 0.45312 1.3125z"/>
  </symbol>
  <symbol id="a" overflow="visible">
   <path d="m1.9062-4.875v1.0781h1.2656v0.85938h-1.2656v1.6094c0 0.17969 0.035156 0.29688 0.10938 0.35938 0.070313 0.0625 0.21094 0.09375 0.42188 0.09375h0.625v0.875h-1.0469c-0.48047 0-0.82031-0.097656-1.0156-0.29688-0.19922-0.19531-0.29688-0.53906-0.29688-1.0312v-1.6094h-0.60938v-0.85938h0.60938v-1.0781z"/>
  </symbol>
  <symbol id="f" overflow="visible">
   <path d="m3.1719-3.25v-2.0312h1.2188v5.2812h-1.2188v-0.54688c-0.16797 0.21875-0.35547 0.38281-0.5625 0.48438-0.19922 0.10156-0.42969 0.15625-0.6875 0.15625-0.46875 0-0.85547-0.17969-1.1562-0.54688-0.30469-0.375-0.45312-0.85156-0.45312-1.4375 0-0.59375 0.14844-1.0703 0.45312-1.4375 0.30078-0.375 0.6875-0.5625 1.1562-0.5625 0.25781 0 0.48828 0.054687 0.6875 0.15625 0.20703 0.10547 0.39453 0.26562 0.5625 0.48438zm-0.79688 2.4688c0.25781 0 0.45703-0.09375 0.59375-0.28125 0.13281-0.19531 0.20312-0.47266 0.20312-0.82812 0-0.36328-0.070313-0.64062-0.20312-0.82812-0.13672-0.19531-0.33594-0.29688-0.59375-0.29688-0.26172 0-0.46094 0.10156-0.59375 0.29688-0.13672 0.1875-0.20312 0.46484-0.20312 0.82812 0 0.35547 0.066406 0.63281 0.20312 0.82812 0.13281 0.1875 0.33203 0.28125 0.59375 0.28125z"/>
  </symbol>
  <symbol id="k" overflow="visible">
   <path d="m2.6094-0.78125c0.25781 0 0.45703-0.09375 0.59375-0.28125 0.13281-0.19531 0.20312-0.47266 0.20312-0.82812 0-0.36328-0.070312-0.64062-0.20312-0.82812-0.13672-0.19531-0.33594-0.29688-0.59375-0.29688-0.26172 0-0.46484 0.10156-0.60938 0.29688-0.13672 0.1875-0.20312 0.46484-0.20312 0.82812 0 0.35547 0.066406 0.63281 0.20312 0.82812 0.14453 0.1875 0.34766 0.28125 0.60938 0.28125zm-0.8125-2.4688c0.16406-0.21875 0.34766-0.37891 0.54688-0.48438 0.20703-0.10156 0.44531-0.15625 0.71875-0.15625 0.46875 0 0.85156 0.1875 1.1562 0.5625 0.30078 0.36719 0.45312 0.84375 0.45312 1.4375 0 0.58594-0.15234 1.0625-0.45312 1.4375-0.30469 0.36719-0.6875 0.54688-1.1562 0.54688-0.27344 0-0.51172-0.054688-0.71875-0.15625-0.19922-0.10156-0.38281-0.26562-0.54688-0.48438v0.54688h-1.2188v-5.2812h1.2188z"/>
  </symbol>
  <symbol id="e" overflow="visible">
   <path d="m0.078125-3.7969h1.2188l1.0312 2.5781 0.85938-2.5781h1.2188l-1.5938 4.1562c-0.16797 0.42578-0.35938 0.72266-0.57812 0.89062-0.21094 0.16406-0.48438 0.25-0.82812 0.25h-0.70312v-0.79688h0.375c0.20703 0 0.35938-0.039063 0.45312-0.10938 0.09375-0.0625 0.16406-0.17969 0.21875-0.34375l0.03125-0.10938z"/>
  </symbol>
  <symbol id="j" overflow="visible">
   <path d="m3.7188-0.92188h-2.0469l-0.32812 0.92188h-1.3125l1.875-5.0625h1.5625l1.875 5.0625h-1.3125zm-1.7188-0.9375h1.3906l-0.70312-2.0156z"/>
  </symbol>
  <symbol id="i" overflow="visible">
   <path d="m4.1094-3.1719c0.15625-0.23828 0.33594-0.41406 0.54688-0.53125 0.20703-0.125 0.44141-0.1875 0.70312-0.1875 0.4375 0 0.76562 0.13672 0.98438 0.40625 0.22656 0.26172 0.34375 0.65234 0.34375 1.1719v2.3125h-1.2188v-1.9844-0.09375c0.007812-0.03125 0.015625-0.070313 0.015625-0.125 0-0.26953-0.042969-0.46875-0.125-0.59375-0.085937-0.125-0.21094-0.1875-0.375-0.1875-0.24219 0-0.42188 0.10156-0.54688 0.29688-0.125 0.1875-0.1875 0.46094-0.1875 0.8125v1.875h-1.2188v-1.9844c0-0.41406-0.039062-0.6875-0.10938-0.8125-0.074219-0.125-0.20312-0.1875-0.39062-0.1875-0.24219 0-0.42188 0.10156-0.54688 0.29688-0.125 0.1875-0.1875 0.46094-0.1875 0.8125v1.875h-1.2188v-3.7969h1.2188v0.54688c0.15625-0.20703 0.32812-0.36328 0.51562-0.46875 0.19531-0.11328 0.41016-0.17188 0.64062-0.17188 0.25781 0 0.48828 0.0625 0.6875 0.1875 0.20703 0.125 0.36328 0.30469 0.46875 0.53125z"/>
  </symbol>
  <symbol id="h" overflow="visible">
   <path d="m4.4062-2.3125v2.3125h-1.2188v-1.7656c0-0.33203-0.011719-0.5625-0.03125-0.6875-0.011719-0.125-0.03125-0.21094-0.0625-0.26562-0.054688-0.082031-0.12109-0.14453-0.20312-0.1875-0.085937-0.050781-0.17969-0.078125-0.28125-0.078125-0.25 0-0.44922 0.10156-0.59375 0.29688-0.14844 0.19922-0.21875 0.46875-0.21875 0.8125v1.875h-1.2188v-5.2812h1.2188v2.0312c0.1875-0.21875 0.37891-0.37891 0.57812-0.48438 0.20703-0.10156 0.4375-0.15625 0.6875-0.15625 0.4375 0 0.76953 0.13672 1 0.40625 0.22656 0.26172 0.34375 0.65234 0.34375 1.1719z"/>
  </symbol>
  <symbol id="u" overflow="visible">
   <path d="m3.5469-3.6875v0.92188c-0.25-0.10156-0.5-0.17969-0.75-0.23438-0.24219-0.0625-0.46875-0.09375-0.6875-0.09375-0.23047 0-0.40234 0.03125-0.51562 0.09375-0.10547 0.0625-0.15625 0.15234-0.15625 0.26562 0 0.09375 0.039062 0.16797 0.125 0.21875 0.082031 0.054687 0.23438 0.09375 0.45312 0.125l0.21875 0.03125c0.625 0.074219 1.0391 0.20312 1.25 0.39062 0.21875 0.17969 0.32812 0.46094 0.32812 0.84375 0 0.40625-0.15234 0.71484-0.45312 0.92188-0.30469 0.19922-0.74609 0.29688-1.3281 0.29688-0.26172 0-0.52734-0.023438-0.79688-0.0625-0.26172-0.03125-0.53125-0.085938-0.8125-0.17188v-0.92188c0.23828 0.11719 0.48438 0.20312 0.73438 0.26562 0.25781 0.0625 0.51953 0.09375 0.78125 0.09375 0.23828 0 0.41406-0.03125 0.53125-0.09375 0.125-0.070313 0.1875-0.17188 0.1875-0.29688 0-0.11328-0.042969-0.19531-0.125-0.25-0.085938-0.050781-0.25-0.09375-0.5-0.125l-0.20312-0.03125c-0.54297-0.0625-0.92188-0.17969-1.1406-0.35938-0.21875-0.1875-0.32812-0.46875-0.32812-0.84375 0-0.40625 0.13281-0.70312 0.40625-0.89062 0.28125-0.19531 0.70703-0.29688 1.2812-0.29688 0.21875 0 0.45312 0.015625 0.70312 0.046875s0.51562 0.085938 0.79688 0.15625z"/>
  </symbol>
  <symbol id="t" overflow="visible">
   <path d="m4.1719-4.9062v1.0625c-0.28125-0.11328-0.55859-0.20312-0.82812-0.26562-0.26172-0.070313-0.51172-0.10938-0.75-0.10938-0.3125 0-0.54297 0.046875-0.6875 0.14062-0.14844 0.085937-0.21875 0.21484-0.21875 0.39062 0 0.13672 0.046875 0.24609 0.14062 0.32812 0.10156 0.074219 0.28906 0.13672 0.5625 0.1875l0.54688 0.10938c0.5625 0.11719 0.96094 0.28906 1.2031 0.51562 0.23828 0.23047 0.35938 0.55859 0.35938 0.98438 0 0.5625-0.16797 0.98047-0.5 1.25-0.33594 0.27344-0.83984 0.40625-1.5156 0.40625-0.32422 0-0.64844-0.03125-0.96875-0.09375-0.32422-0.050781-0.64844-0.14062-0.96875-0.26562v-1.1094c0.32031 0.17969 0.63281 0.3125 0.9375 0.40625 0.30078 0.085938 0.59375 0.125 0.875 0.125s0.49219-0.046875 0.64062-0.14062c0.15625-0.10156 0.23438-0.24219 0.23438-0.42188 0-0.15625-0.054687-0.27344-0.15625-0.35938-0.09375-0.082031-0.29688-0.16016-0.60938-0.23438l-0.5-0.10938c-0.51172-0.10156-0.88672-0.27344-1.125-0.51562-0.23047-0.23828-0.34375-0.5625-0.34375-0.96875 0-0.5 0.16016-0.88281 0.48438-1.1562 0.33203-0.26953 0.80078-0.40625 1.4062-0.40625 0.28125 0 0.56641 0.023438 0.85938 0.0625 0.28906 0.042969 0.59766 0.10547 0.92188 0.1875z"/>
  </symbol>
  <symbol id="g" overflow="visible">
   <path d="m0.54688-1.4844v-2.3125h1.2188v0.375 0.78125 0.60938c0 0.3125 0.003906 0.53906 0.015625 0.67188 0.019531 0.13672 0.046875 0.23438 0.078125 0.29688 0.050781 0.074219 0.11328 0.13281 0.1875 0.17188 0.082031 0.042969 0.17578 0.0625 0.28125 0.0625 0.25781 0 0.46094-0.09375 0.60938-0.28125 0.14453-0.19531 0.21875-0.46875 0.21875-0.8125v-1.875h1.2031v3.7969h-1.2031v-0.54688c-0.1875 0.21875-0.38672 0.38281-0.59375 0.48438-0.19922 0.10156-0.42188 0.15625-0.67188 0.15625-0.4375 0-0.77344-0.12891-1-0.39062-0.23047-0.26953-0.34375-0.66406-0.34375-1.1875z"/>
  </symbol>
  <symbol id="s" overflow="visible">
   <path d="m0.57812-3.7969h1.2188v3.7969h-1.2188zm0-1.4844h1.2188v0.98438h-1.2188z"/>
  </symbol>
  <symbol id="c" overflow="visible">
   <path d="m2.3906-3.0312c-0.27344 0-0.48047 0.10156-0.625 0.29688-0.13672 0.19922-0.20312 0.48047-0.20312 0.84375 0 0.36719 0.066406 0.64844 0.20312 0.84375 0.14453 0.1875 0.35156 0.28125 0.625 0.28125 0.26953 0 0.47266-0.09375 0.60938-0.28125 0.14453-0.19531 0.21875-0.47656 0.21875-0.84375 0-0.36328-0.074219-0.64453-0.21875-0.84375-0.13672-0.19531-0.33984-0.29688-0.60938-0.29688zm0-0.85938c0.65625 0 1.1641 0.17969 1.5312 0.53125 0.375 0.35547 0.5625 0.84375 0.5625 1.4688s-0.1875 1.1172-0.5625 1.4688c-0.36719 0.34375-0.875 0.51562-1.5312 0.51562s-1.1719-0.17188-1.5469-0.51562c-0.36719-0.35156-0.54688-0.84375-0.54688-1.4688s0.17969-1.1133 0.54688-1.4688c0.375-0.35156 0.89062-0.53125 1.5469-0.53125z"/>
  </symbol>
  <symbol id="r" overflow="visible">
   <path d="m3.0938-5.2812v0.79688h-0.6875c-0.16797 0-0.28906 0.03125-0.35938 0.09375-0.0625 0.0625-0.09375 0.17188-0.09375 0.32812v0.26562h1.0312v0.85938h-1.0312v2.9375h-1.2188v-2.9375h-0.60938v-0.85938h0.60938v-0.26562c0-0.41406 0.11328-0.72266 0.34375-0.92188 0.22656-0.19531 0.58594-0.29688 1.0781-0.29688z"/>
  </symbol>
  <symbol id="q" overflow="visible">
   <path d="m0.64062-5.0625h1.4531l1.8438 3.4688v-3.4688h1.25v5.0625h-1.4688l-1.8438-3.4844v3.4844h-1.2344z"/>
  </symbol>
  <symbol id="p" overflow="visible">
   <path d="m4.4062-2.3125v2.3125h-1.2188v-1.7656c0-0.33203-0.011719-0.5625-0.03125-0.6875-0.011719-0.125-0.03125-0.21094-0.0625-0.26562-0.054688-0.082031-0.12109-0.14453-0.20312-0.1875-0.085937-0.050781-0.17969-0.078125-0.28125-0.078125-0.25 0-0.44922 0.10156-0.59375 0.29688-0.14844 0.19922-0.21875 0.46875-0.21875 0.8125v1.875h-1.2188v-3.7969h1.2188v0.54688c0.1875-0.21875 0.37891-0.37891 0.57812-0.48438 0.20703-0.10156 0.4375-0.15625 0.6875-0.15625 0.4375 0 0.76953 0.13672 1 0.40625 0.22656 0.26172 0.34375 0.65234 0.34375 1.1719z"/>
  </symbol>
  <symbol id="o" overflow="visible">
   <path d="m0.64062-5.0625h2.1719c0.64453 0 1.1406 0.14844 1.4844 0.4375 0.34375 0.28125 0.51562 0.68359 0.51562 1.2031 0 0.53125-0.17188 0.94531-0.51562 1.2344-0.34375 0.28125-0.83984 0.42188-1.4844 0.42188h-0.85938v1.7656h-1.3125zm1.3125 0.9375v1.4219h0.71875c0.25 0 0.44141-0.0625 0.57812-0.1875 0.14453-0.125 0.21875-0.30078 0.21875-0.53125 0-0.21875-0.074219-0.39062-0.21875-0.51562-0.13672-0.125-0.32812-0.1875-0.57812-0.1875z"/>
  </symbol>
  <symbol id="n" overflow="visible">
   <path d="m0.57812-3.7969h1.2188v3.7344c0 0.50781-0.125 0.89453-0.375 1.1562-0.24219 0.26953-0.58984 0.40625-1.0469 0.40625h-0.60938v-0.79688h0.21875c0.22656 0 0.38281-0.054687 0.46875-0.15625 0.082031-0.10547 0.125-0.30859 0.125-0.60938zm0-1.4844h1.2188v0.98438h-1.2188z"/>
  </symbol>
  <symbol id="m" overflow="visible">
   <path d="m3.6562-3.6875v1c-0.16797-0.11328-0.33594-0.19531-0.5-0.25-0.16797-0.0625-0.33984-0.09375-0.51562-0.09375-0.34375 0-0.60938 0.10156-0.79688 0.29688-0.1875 0.19922-0.28125 0.48047-0.28125 0.84375 0 0.35547 0.09375 0.63281 0.28125 0.82812 0.1875 0.19922 0.45312 0.29688 0.79688 0.29688 0.1875 0 0.36328-0.023437 0.53125-0.078125 0.17578-0.0625 0.33594-0.14844 0.48438-0.26562v1c-0.1875 0.074219-0.38281 0.125-0.57812 0.15625-0.19922 0.03125-0.39844 0.046875-0.59375 0.046875-0.6875 0-1.2266-0.17188-1.6094-0.51562-0.38672-0.35156-0.57812-0.84375-0.57812-1.4688 0-0.63281 0.19141-1.125 0.57812-1.4688 0.38281-0.35156 0.92188-0.53125 1.6094-0.53125 0.19531 0 0.39453 0.023437 0.59375 0.0625 0.19531 0.03125 0.39062 0.078125 0.57812 0.14062z"/>
  </symbol>
 </defs> -->
 <g>
  <path d="m139.05 336.53v55.438c17.18 8.1523 105.55 47.484 210.95 47.484s193.77-39.332 210.95-47.484v-55.438c-25.41 5.7734-117.18 25.016-210.95 25.016s-185.54-19.242-210.95-25.016z"/>
  <path d="m139.05 404.21v21.836c8.7891 5.4609 19.434 11.469 31.871 17.457 37.195 17.906 98.457 39.254 179.08 39.254 101.54 0 173.37-33.547 210.95-56.797v-21.75c-25.898 11.719-110.93 46.359-210.95 46.359-100.02 0-185.05-34.641-210.95-46.359z"/>
  <path d="m331.23 131.35-192.18 54.715v28.043l188.86-47.676c14.457-3.6484 29.742-3.6484 44.199 0l188.86 47.676v-28.043l-192.18-54.715c-12.281-3.4961-25.266-3.4961-37.543 0z"/>
  <path d="m139.05 275.85v49.266c20.734 4.8047 114.81 25.305 210.95 25.305s190.22-20.496 210.95-25.305v-49.266c-23.746-1.1992-124.28-5.9961-210.95-5.9961-86.676 0.003906-187.21 4.8008-210.95 5.9961z"/>
  <path d="m330.62 177.21-191.57 48.363v39.141c24.84-1.25 124.71-5.9805 210.95-5.9805s186.11 4.7344 210.95 5.9805v-39.137l-191.57-48.367c-12.676-3.1953-26.078-3.1953-38.758 0z"/>
  <path d="m26.168 156.46c-12.457 4.0898-20.672 14.969-24.41 32.332-13.602 63.145 54.512 164.21 108.84 213.09v3.8789c2.7227 2.3125 8.5508 7.0391 17.328 13.047v-229.57l-13.926 3.9648c-17.957-15.09-59.469-46.051-87.836-36.734zm-13.539 34.676c2.8906-13.414 8.4531-21.301 17.008-24.109 20.254-6.6484 54.898 15.066 80.965 37.902v181.74c-51.668-49.938-109.66-141.27-97.973-195.54z"/>
  <path d="m698.25 188.8c-3.7578-17.449-12.379-28.504-25.633-32.852-28.707-9.4297-70.086 16.355-92.992 35.438l-7.5469-2.1484v229.52c8.7852-5.9883 14.609-10.688 17.328-12.992v-0.5625c55.766-50.578 122.25-154.14 108.84-216.4zm-108.84 201.1v-192.14c22.547-18.074 58.078-38.363 79.746-31.246 9.3594 3.0703 15.32 11.129 18.23 24.629 11.797 54.797-46.918 148.72-97.977 198.76z"/>
  <use y="503.613281" xlink:href="#v"/>
  <use x="5.101562" y="503.613281" xlink:href="#d"/>
  <use x="8.527344" y="503.613281" xlink:href="#b"/>
  <use x="13.242187" y="503.613281" xlink:href="#l"/>
  <use x="17.933594" y="503.613281" xlink:href="#a"/>
  <use x="21.257812" y="503.613281" xlink:href="#b"/>
  <use x="25.96875" y="503.613281" xlink:href="#f"/>
  <use x="33.367188" y="503.613281" xlink:href="#k"/>
  <use x="38.339844" y="503.613281" xlink:href="#e"/>
  <use x="45.292969" y="503.613281" xlink:href="#j"/>
  <use x="50.671875" y="503.613281" xlink:href="#i"/>
  <use x="57.914062" y="503.613281" xlink:href="#b"/>
  <use x="62.628906" y="503.613281" xlink:href="#a"/>
  <use x="65.949219" y="503.613281" xlink:href="#h"/>
  <use x="70.898438" y="503.613281" xlink:href="#e"/>
  <use x="75.429688" y="503.613281" xlink:href="#u"/>
  <use x="79.566406" y="503.613281" xlink:href="#a"/>
  <use x="85.308594" y="503.613281" xlink:href="#t"/>
  <use x="90.316406" y="503.613281" xlink:href="#a"/>
  <use x="93.636719" y="503.613281" xlink:href="#g"/>
  <use x="98.585938" y="503.613281" xlink:href="#f"/>
  <use x="103.5625" y="503.613281" xlink:href="#s"/>
  <use x="105.945312" y="503.613281" xlink:href="#c"/>
  <use y="510.566406" xlink:href="#r"/>
  <use x="3.023437" y="510.566406" xlink:href="#d"/>
  <use x="6.453125" y="510.566406" xlink:href="#c"/>
  <use x="11.226562" y="510.566406" xlink:href="#i"/>
  <use x="20.890625" y="510.566406" xlink:href="#a"/>
  <use x="24.210938" y="510.566406" xlink:href="#h"/>
  <use x="29.160156" y="510.566406" xlink:href="#b"/>
  <use x="36.292969" y="510.566406" xlink:href="#q"/>
  <use x="42.113281" y="510.566406" xlink:href="#c"/>
  <use x="46.886719" y="510.566406" xlink:href="#g"/>
  <use x="51.835938" y="510.566406" xlink:href="#p"/>
  <use x="59.203125" y="510.566406" xlink:href="#o"/>
  <use x="64.296875" y="510.566406" xlink:href="#d"/>
  <use x="67.726562" y="510.566406" xlink:href="#c"/>
  <use x="72.5" y="510.566406" xlink:href="#n"/>
  <use x="74.882812" y="510.566406" xlink:href="#b"/>
  <use x="79.597656" y="510.566406" xlink:href="#m"/>
  <use x="83.71875" y="510.566406" xlink:href="#a"/>
 </g>
</svg>
