<?xml version="1.0" encoding="UTF-8"?>
<svg width="700pt" height="700pt" version="1.1" viewBox="0 0 700 700" xmlns="http://www.w3.org/2000/svg" xmlns:xlink="http://www.w3.org/1999/xlink" fill="white">
 
 <g>
  <path d="m318.64 94.078h14v56c5.0391-1.1211 11.199-2.2383 17.359-2.2383s11.762 0.55859 17.359 2.2383v-17.359h31.359v3.3594c0 3.9219 3.3594 6.7188 7.2812 6.7188s7.2812-3.3594 7.2812-6.7188v-27.438c0-3.9219-3.3594-6.7188-7.2812-6.7188s-7.2812 3.3594-7.2812 6.7188v3.3594h-31.359v-17.922h14c5.6016 0 10.641-4.4805 10.641-10.078 0-5.6016-4.4805-10.641-10.641-10.641h-14c0-9.5195-7.2812-17.359-17.359-17.359s-17.359 7.8398-17.359 17.359h-14c-5.6016 0-10.641 5.0391-10.641 10.641s5.0391 10.078 10.641 10.078z"/>
  <path d="m343.28 288.4c-6.1602 0-10.641 2.2383-14 6.1602-3.9219 4.4805-5.6016 9.5195-5.6016 16.238s1.6797 11.762 5.6016 16.238c3.3594 4.4805 8.3984 6.1602 14 6.1602 6.1602 0 10.641-2.2383 14-6.1602 3.9219-4.4805 5.6016-9.5195 5.6016-16.238s-1.6797-11.762-5.6016-16.238c-3.3594-3.918-8.4023-6.1602-14-6.1602z"/>
  <path d="m280.56 224.56v210h138.88l0.003906-210zm37.52 113.12c-6.1602-7.2812-9.5195-15.68-9.5195-26.32 0-10.078 3.3594-19.039 9.5195-26.32 6.7188-7.2812 15.121-10.641 25.199-10.641s18.48 3.3594 25.199 10.641c6.1602 7.2812 9.5195 15.68 9.5195 26.32 0 10.078-3.3594 19.039-9.5195 26.32-6.7188 7.2812-15.121 10.641-25.199 10.641-10.637 0-19.039-3.3594-25.199-10.641zm72.242 47.039h-26.32l0.55859-1.6797c0.55859-2.2383 0.55859-3.9219 1.1211-5.0391v-0.55859c1.1211-1.6797 5.0391-5.0391 11.199-11.199 4.4805-4.4805 5.0391-6.7188 5.0391-7.8398s-0.55859-2.8008-3.9219-2.8008c-1.6797 0-3.9219 0.55859-4.4805 5.0391l-0.55859 1.6797-7.2812-1.6797v-1.6797c0.55859-3.3594 1.6797-6.1602 3.9219-8.3984 2.2383-1.6797 5.0391-2.8008 8.3984-2.8008s6.1602 1.1211 8.3984 2.8008c2.2383 2.2383 3.3594 4.4805 3.3594 7.8398 0 2.8008-1.1211 5.6016-3.9219 8.9609-1.6797 1.6797-3.9219 4.4805-7.8398 7.2812-1.1211 1.1211-2.2383 1.6797-2.8008 2.8008h16.238z"/>
  <path d="m280.56 462c0 22.961 19.039 42 42 42h55.441c22.961 0 41.441-18.48 41.441-41.441v-6.7188h-138.88z"/>
  <path d="m350 155.12c-31.359 0-57.68 20.16-66.641 48.719h133.28c-8.9609-28.559-35.281-48.719-66.641-48.719z"/>
  <use x="70" y="644" xlink:href="#v"/>
  <use x="90.550781" y="644" xlink:href="#d"/>
  <use x="104.359375" y="644" xlink:href="#a"/>
  <use x="123.347656" y="644" xlink:href="#l"/>
  <use x="142.242188" y="644" xlink:href="#c"/>
  <use x="155.628906" y="644" xlink:href="#a"/>
  <use x="174.617188" y="644" xlink:href="#k"/>
  <use x="204.410156" y="644" xlink:href="#j"/>
  <use x="224.453125" y="644" xlink:href="#i"/>
  <use x="252.453125" y="644" xlink:href="#h"/>
  <use x="280.3125" y="644" xlink:href="#g"/>
  <use x="300.25" y="644" xlink:href="#u"/>
  <use x="316.914062" y="644" xlink:href="#f"/>
  <use x="346.089844" y="644" xlink:href="#a"/>
  <use x="365.078125" y="644" xlink:href="#e"/>
  <use x="374.679688" y="644" xlink:href="#e"/>
  <use x="384.273438" y="644" xlink:href="#b"/>
  <use x="403.511719" y="644" xlink:href="#t"/>
  <use x="70" y="672" xlink:href="#s"/>
  <use x="82.183594" y="672" xlink:href="#d"/>
  <use x="95.992188" y="672" xlink:href="#b"/>
  <use x="115.226562" y="672" xlink:href="#f"/>
  <use x="154.152344" y="672" xlink:href="#c"/>
  <use x="167.535156" y="672" xlink:href="#r"/>
  <use x="187.46875" y="672" xlink:href="#a"/>
  <use x="216.207031" y="672" xlink:href="#q"/>
  <use x="239.640625" y="672" xlink:href="#b"/>
  <use x="258.878906" y="672" xlink:href="#g"/>
  <use x="278.8125" y="672" xlink:href="#p"/>
  <use x="308.492188" y="672" xlink:href="#o"/>
  <use x="329.015625" y="672" xlink:href="#d"/>
  <use x="342.820312" y="672" xlink:href="#b"/>
  <use x="362.058594" y="672" xlink:href="#n"/>
  <use x="371.65625" y="672" xlink:href="#a"/>
  <use x="390.648438" y="672" xlink:href="#m"/>
  <use x="407.242188" y="672" xlink:href="#c"/>
 </g>
</svg>
